Sprint_08100001_forces_filt50Hz.mot
version=1
nRows=57
nColumns=19
inDegrees=yes
endheader
time	R_ground_force_vx	R_ground_force_vy	R_ground_force_vz	R_ground_force_px	R_ground_force_py	R_ground_force_pz	R_ground_torque_x	R_ground_torque_y	R_ground_torque_z	L_ground_force_vx	L_ground_force_vy	L_ground_force_vz	L_ground_force_px	L_ground_force_py	L_ground_force_pz	L_ground_torque_x	L_ground_torque_y	L_ground_torque_z	
0.000000	  0.000000	  0.000000	  0.000000	  0.270459	  0.000000	 -0.246355	  0.000000	  0.000000	  0.000000	  0.000000	  0.000000	  0.000000	  1.245356	  0.000000	 -0.405437	  0.000000	  0.000000	  0.000000
0.000500	  0.000000	  0.000000	  0.000000	  0.272823	 -0.000000	 -0.246224	  0.000000	  0.000000	  0.000000	  0.000000	  0.000000	  0.000000	  1.240619	  0.000000	 -0.405862	  0.000000	  0.000000	  0.000000
0.001000	  0.000000	  0.000000	  0.000000	  0.275187	 -0.000000	 -0.246094	  0.000000	  0.000000	  0.000000	  0.000000	  0.000000	  0.000000	  1.235882	  0.000000	 -0.406288	  0.000000	  0.000000	  0.000000
0.001500	  0.000000	  0.000000	  0.000000	  0.277550	 -0.000000	 -0.245963	  0.000000	  0.000000	  0.000000	  0.000000	  0.000000	  0.000000	  1.231145	  0.000000	 -0.406713	  0.000000	  0.000000	  0.000000
0.002000	  0.000000	  0.000000	  0.000000	  0.279914	 -0.000000	 -0.245833	  0.000000	  0.000000	  0.000000	  0.000000	  0.000000	  0.000000	  1.226408	  0.000000	 -0.407138	  0.000000	  0.000000	  0.000000
0.002500	  0.000000	  0.000000	  0.000000	  0.282278	  0.000000	 -0.245702	  0.000000	  0.000000	  0.000000	  0.000000	  0.000000	  0.000000	  1.221671	  0.000000	 -0.407564	  0.000000	  0.000000	  0.000000
0.003000	  0.000000	  0.000000	  0.000000	  0.284642	  0.000000	 -0.245572	  0.000000	  0.000000	  0.000000	  0.000000	  0.000000	  0.000000	  1.216934	 -0.000000	 -0.407989	  0.000000	  0.000000	  0.000000
0.003500	  0.000000	  0.000000	  0.000000	  0.287006	  0.000000	 -0.245441	  0.000000	  0.000000	  0.000000	  0.000000	  0.000000	  0.000000	  1.212197	 -0.000000	 -0.408415	  0.000000	  0.000000	  0.000000
0.004000	  0.000000	  0.000000	  0.000000	  0.289370	  0.000000	 -0.245311	  0.000000	  0.000000	  0.000000	  0.000000	  0.000000	  0.000000	  1.207459	 -0.000000	 -0.408840	  0.000000	  0.000000	  0.000000
0.004500	  0.000000	  0.000000	  0.000000	  0.291734	  0.000000	 -0.245180	  0.000000	  0.000000	  0.000000	  0.000000	  0.000000	  0.000000	  1.202722	 -0.000000	 -0.409265	  0.000000	  0.000000	  0.000000
0.005000	  0.000000	  0.000000	  0.000000	  0.294098	  0.000000	 -0.245050	  0.000000	  0.000000	  0.000000	  0.000000	  0.000000	  0.000000	  1.197985	 -0.000000	 -0.409691	  0.000000	  0.000000	  0.000000
0.005500	  0.000000	  0.000000	  0.000000	  0.296495	  0.000000	 -0.244976	  0.000000	  0.000000	  0.000000	 44.129990	 22.330434	 24.148374	  1.178563	 -0.000000	 -0.420161	  0.000000	 16.921397	  0.000000
0.006000	  0.000000	  0.000000	  0.000000	  0.298893	  0.000000	 -0.244903	  0.000000	  0.000000	  0.000000	 42.472707	 42.407309	 23.332286	  1.159140	 -0.000000	 -0.430631	  0.000000	 19.001554	  0.000000
0.006500	  0.000000	  0.000000	  0.000000	  0.301291	  0.000000	 -0.244830	  0.000000	  0.000000	  0.000000	 38.914435	 66.304169	 21.370812	  1.139717	 -0.000000	 -0.441102	  0.000000	 20.218483	  0.000000
0.007000	  0.000000	  0.000000	  0.000000	  0.303689	  0.000000	 -0.244757	  0.000000	  0.000000	  0.000000	 33.335041	 94.309619	 18.329137	  1.120295	  0.000000	 -0.451572	  0.000000	 20.653006	  0.000000
0.007500	  0.000000	  0.000000	  0.000000	  0.306087	  0.000000	 -0.244684	  0.000000	  0.000000	  0.000000	 25.629091	126.670307	 14.304414	  1.100872	  0.000000	 -0.462042	  0.000000	 20.384645	  0.000000
0.008000	  0.000000	  0.000000	  0.000000	  0.308485	  0.000000	 -0.244610	  0.000000	  0.000000	  0.000000	 15.711319	163.573652	  9.425248	  1.081449	  0.000000	 -0.472512	  0.000000	 19.496493	  0.000000
0.008500	  0.000000	  0.000000	  0.000000	  0.310882	  0.000000	 -0.244537	  0.000000	  0.000000	  0.000000	  3.522268	205.127930	  3.850591	  1.062027	  0.000000	 -0.482983	  0.000000	 18.077024	  0.000000
0.009000	  0.000000	  0.000000	  0.000000	  0.313280	  0.000000	 -0.244464	  0.000000	  0.000000	  0.000000	-10.966950	251.339582	 -2.232049	  1.042604	  0.000000	 -0.493453	  0.000000	 16.220548	  0.000000
0.009500	  0.000000	  0.000000	  0.000000	  0.315678	  0.000000	 -0.244391	  0.000000	  0.000000	  0.000000	-27.751221	302.087710	 -8.608945	  1.040008	  0.000000	 -0.489163	  0.000000	 14.027011	  0.000000
0.010000	  0.000000	  0.000000	  0.000000	  0.318076	  0.000000	 -0.244317	  0.000000	  0.000000	  0.000000	-46.789214	357.095746	-15.042711	  1.037107	  0.000000	 -0.484882	  0.000000	 11.601371	  0.000000
0.010500	  0.000000	  0.000000	  0.000000	  0.320546	  0.000000	 -0.244262	  0.000000	  0.000000	  0.000000	-68.001826	415.913729	-21.275371	  1.033995	  0.000000	 -0.480615	  0.000000	  9.052620	  0.000000
0.011000	  0.000000	  0.000000	  0.000000	  0.323015	  0.000000	 -0.244207	  0.000000	  0.000000	  0.000000	-91.270294	477.938052	-27.032930	  1.030725	  0.000000	 -0.476363	  0.000000	  6.492498	  0.000000
0.011500	  0.000000	  0.000000	  0.000000	  0.325485	  0.000000	 -0.244151	  0.000000	  0.000000	  0.000000	-116.433671	542.462312	-32.032222	  1.027332	  0.000000	 -0.472119	  0.000000	  4.033795	  0.000000
0.012000	  0.000000	  0.000000	  0.000000	  0.327955	  0.000000	 -0.244096	  0.000000	  0.000000	  0.000000	-143.286127	608.719655	-35.990610	  1.023844	  0.000000	 -0.467879	  0.000000	  1.788320	  0.000000
0.012500	  0.000000	  0.000000	  0.000000	  0.330424	  0.000000	 -0.244041	  0.000000	  0.000000	  0.000000	-171.574624	675.906310	-38.638085	  1.020289	  0.000000	 -0.463644	  0.000000	 -0.135400	  0.000000
0.013000	  0.000000	  0.000000	  0.000000	  0.332894	  0.000000	 -0.243985	  0.000000	  0.000000	  0.000000	-200.997582	743.205060	-39.730267	  1.016700	  0.000000	 -0.459417	  0.000000	 -1.634681	  0.000000
0.013500	  0.000000	  0.000000	  0.000000	  0.335364	  0.000000	 -0.243930	  0.000000	  0.000000	  0.000000	-231.204587	809.815439	-39.061152	  1.013112	  0.000000	 -0.455209	  0.000000	 -2.615397	  0.000000
0.014000	  0.000000	  0.000000	  0.000000	  0.337834	  0.000000	 -0.243875	  0.000000	  0.000000	  0.000000	-261.796663	874.985931	-36.474769	  1.009557	  0.000000	 -0.451035	  0.000000	 -2.994591	  0.000000
0.014500	  0.000000	  0.000000	  0.000000	  0.340303	  0.000000	 -0.243819	  0.000000	  0.000000	  0.000000	-292.327239	938.043483	-31.874996	  1.006065	  0.000000	 -0.446913	  0.000000	 -2.702851	  0.000000
0.015000	  0.000000	  0.000000	  0.000000	  0.342773	  0.000000	 -0.243764	  0.000000	  0.000000	  0.000000	-322.304598	998.415219	-25.232930	  1.002670	  0.000000	 -0.442870	  0.000000	 -1.686252	  0.000000
0.015500	  0.000000	  0.000000	  0.000000	  0.345296	  0.000000	 -0.243625	  0.000000	  0.000000	  0.000000	-351.196745	1055.639841	-16.590660	  0.999416	  0.000000	 -0.438934	  0.000000	  0.091928	  0.000000
0.016000	  0.000000	  0.000000	  0.000000	  0.347818	  0.000000	 -0.243486	  0.000000	  0.000000	  0.000000	-378.439793	1109.369502	 -6.059846	  0.996361	  0.000000	 -0.435141	  0.000000	  2.649116	  0.000000
0.016500	  0.000000	  0.000000	  0.000000	  0.350341	  0.000000	 -0.243347	  0.000000	  0.000000	  0.000000	-403.450532	1159.365373	  6.185472	  0.993588	  0.000000	 -0.431528	  0.000000	  5.981060	  0.000000
0.017000	  0.000000	  0.000000	  0.000000	  0.352863	  0.000000	 -0.243209	  0.000000	  0.000000	  0.000000	-425.643269	1205.492074	 19.921318	  0.991201	  0.000000	 -0.428138	  0.000000	 10.059515	  0.000000
0.017500	  0.000000	  0.000000	  0.000000	  0.355386	  0.000000	 -0.243070	  0.000000	  0.000000	  0.000000	-444.450433	1247.714212	 34.889875	  0.989323	  0.000000	 -0.425014	  0.000000	 14.830758	  0.000000
0.018000	  0.000000	  0.000000	  0.000000	  0.357909	  0.000000	 -0.242931	  0.000000	  0.000000	  0.000000	-459.345785	1286.096637	 50.816534	  0.988091	  0.000000	 -0.422195	  0.000000	 20.216127	  0.000000
0.018500	  0.000000	  0.000000	  0.000000	  0.360431	  0.000000	 -0.242792	  0.000000	  0.000000	  0.000000	-469.868587	1320.807679	 67.425768	  0.987638	  0.000000	 -0.419720	  0.000000	 26.114922	  0.000000
0.019000	  0.000000	  0.000000	  0.000000	  0.362954	  0.000000	 -0.242654	  0.000000	  0.000000	  0.000000	-475.646576	1352.122111	 84.454172	  0.988084	  0.000000	 -0.417619	  0.000000	 32.409345	  0.000000
0.019500	  0.000000	  0.000000	  0.000000	  0.365476	  0.000000	 -0.242515	  0.000000	  0.000000	  0.000000	-476.416396	1380.420831	101.660328	  0.989515	  0.000000	 -0.415914	  0.000000	 38.970521	  0.000000
0.020000	  0.000000	  0.000000	  0.000000	  0.367999	  0.000000	 -0.242376	  0.000000	  0.000000	  0.000000	-472.041060	1406.184505	118.832524	  0.991976	  0.000000	 -0.414616	  0.000000	 45.664142	  0.000000
0.020500	  0.000000	  0.000000	  0.000000	  0.370551	  0.000000	 -0.242196	  0.000000	  0.000000	  0.000000	-462.524087	1429.980451	135.795654	  0.995445	  0.000000	 -0.413723	  0.000000	 52.354630	  0.000000
0.021000	  0.000000	  0.000000	  0.000000	  0.373102	  0.000000	 -0.242017	  0.000000	  0.000000	  0.000000	-448.019914	1452.444177	152.418912	  0.999836	  0.000000	 -0.413219	  0.000000	 58.907232	  0.000000
0.021500	  0.000000	  0.000000	  0.000000	  0.375654	  0.000000	 -0.241837	  0.000000	  0.000000	  0.000000	-428.839662	1474.257057	168.624216	  1.004987	  0.000000	 -0.413069	  0.000000	 65.188189	  0.000000
0.022000	  0.000000	  0.000000	  0.000000	  0.378205	  0.000000	 -0.241658	  0.000000	  0.000000	  0.000000	-405.450817	1496.121802	184.393711	  1.010665	  0.000000	 -0.413219	  0.000000	 71.063681	  0.000000
0.022500	  0.000000	  0.000000	  0.000000	  0.380757	  0.000000	 -0.241478	  0.000000	  0.000000	  0.000000	-378.469885	1518.737505	199.774061	  1.016585	  0.000000	 -0.413597	  0.000000	 76.398096	  0.000000
0.023000	  0.000000	  0.000000	  0.000000	  0.383308	  0.000000	 -0.241298	  0.000000	  0.000000	  0.000000	-348.647558	1542.776180	214.874581	  1.022418	  0.000000	 -0.414116	  0.000000	 81.051748	  0.000000
0.023500	  0.000000	  0.000000	  0.000000	  0.385860	  0.000000	 -0.241119	  0.000000	  0.000000	  0.000000	-316.846351	1568.863115	229.857788	  1.027815	  0.000000	 -0.414674	  0.000000	 84.878493	  0.000000
0.024000	  0.000000	  0.000000	  0.000000	  0.388411	  0.000000	 -0.240939	  0.000000	  0.000000	  0.000000	-284.011141	1597.563639	244.922540	  1.032427	  0.000000	 -0.415170	  0.000000	 87.724031	  0.000000
0.024500	  0.000000	  0.000000	  0.000000	  0.390963	  0.000000	 -0.240760	  0.000000	  0.000000	  0.000000	-251.133564	1629.376535	260.281294	  1.035924	  0.000000	 -0.415508	  0.000000	 89.426222	  0.000000
0.025000	  0.000000	  0.000000	  0.000000	  0.393514	  0.000000	 -0.240580	  0.000000	  0.000000	  0.000000	-219.211838	1664.731828	276.134329	  1.038011	  0.000000	 -0.415601	  0.000000	 89.819162	  0.000000
0.025500	  0.000000	  0.000000	  0.000000	  0.396074	  0.000000	 -0.240452	  0.000000	  0.000000	  0.000000	-189.208256	1703.989662	292.644248	  1.038451	  0.000000	 -0.415388	  0.000000	 88.741839	  0.000000
0.026000	  0.000000	  0.000000	  0.000000	  0.398635	  0.000000	 -0.240324	  0.000000	  0.000000	  0.000000	-162.007328	1747.436048	309.914558	  1.037078	  0.000000	 -0.414829	  0.000000	 86.051112	  0.000000
0.026500	  0.000000	  0.000000	  0.000000	  0.401195	  0.000000	 -0.240196	  0.000000	  0.000000	  0.000000	-138.377773	1795.273674	327.975296	  1.033811	  0.000000	 -0.413911	  0.000000	 81.637511	  0.000000
0.027000	  0.000000	  0.000000	  0.000000	  0.403755	  0.000000	 -0.240068	  0.000000	  0.000000	  0.000000	-118.941716	1847.608358	346.777881	  1.028662	  0.000000	 -0.412647	  0.000000	 75.440864	  0.000000
0.027500	  0.000000	  0.000000	  0.000000	  0.406315	  0.000000	 -0.239940	  0.000000	  0.000000	  0.000000	-104.153092	1904.433419	366.199250	  1.021735	  0.000000	 -0.411070	  0.000000	 67.462793	  0.000000
0.028000	  0.000000	  0.000000	  0.000000	  0.408876	  0.000000	 -0.239812	  0.000000	  0.000000	  0.000000	-94.285831	1965.616002	386.053278	  1.013222	  0.000000	 -0.409230	  0.000000	 57.773498	  0.000000
